<?xml version="1.0" encoding="UTF-8"?>
<svg width="720px" height="480px" viewBox="0 0 720 480" version="1.1" xmlns="http://www.w3.org/2000/svg" xmlns:xlink="http://www.w3.org/1999/xlink">
    <g id="rams_thumb" stroke="none" stroke-width="1" fill="none" fill-rule="evenodd">
        <rect id="Rectangle-4" fill="#19A974" x="0" y="0" width="720" height="480"></rect>
        <path d="M108,96 L612,96 C618.627417,96 624,101.372583 624,108 L624,372 C624,378.627417 618.627417,384 612,384 L108,384 C101.372583,384 96,378.627417 96,372 L96,108 C96,101.372583 101.372583,96 108,96 Z M376,350 C373.238576,350 371,347.761424 371,345 C371,342.238576 373.238576,340 376,340 C378.761424,340 381,342.238576 381,345 C381,347.761424 378.761424,350 376,350 Z M376,329 C373.238576,329 371,326.761424 371,324 C371,321.238576 373.238576,319 376,319 C378.761424,319 381,321.238576 381,324 C381,326.761424 378.761424,329 376,329 Z M376,308 C373.238576,308 371,305.761424 371,303 C371,300.238576 373.238576,298 376,298 C378.761424,298 381,300.238576 381,303 C381,305.761424 378.761424,308 376,308 Z M376,287 C373.238576,287 371,284.761424 371,282 C371,279.238576 373.238576,277 376,277 C378.761424,277 381,279.238576 381,282 C381,284.761424 378.761424,287 376,287 Z M376,266 C373.238576,266 371,263.761424 371,261 C371,258.238576 373.238576,256 376,256 C378.761424,256 381,258.238576 381,261 C381,263.761424 378.761424,266 376,266 Z M376,245 C373.238576,245 371,242.761424 371,240 C371,237.238576 373.238576,235 376,235 C378.761424,235 381,237.238576 381,240 C381,242.761424 378.761424,245 376,245 Z M376,224 C373.238576,224 371,221.761424 371,219 C371,216.238576 373.238576,214 376,214 C378.761424,214 381,216.238576 381,219 C381,221.761424 378.761424,224 376,224 Z M376,203 C373.238576,203 371,200.761424 371,198 C371,195.238576 373.238576,193 376,193 C378.761424,193 381,195.238576 381,198 C381,200.761424 378.761424,203 376,203 Z M376,182 C373.238576,182 371,179.761424 371,177 C371,174.238576 373.238576,172 376,172 C378.761424,172 381,174.238576 381,177 C381,179.761424 378.761424,182 376,182 Z M376,161 C373.238576,161 371,158.761424 371,156 C371,153.238576 373.238576,151 376,151 C378.761424,151 381,153.238576 381,156 C381,158.761424 378.761424,161 376,161 Z M376,140 C373.238576,140 371,137.761424 371,135 C371,132.238576 373.238576,130 376,130 C378.761424,130 381,132.238576 381,135 C381,137.761424 378.761424,140 376,140 Z M397,140 C394.238576,140 392,137.761424 392,135 C392,132.238576 394.238576,130 397,130 C399.761424,130 402,132.238576 402,135 C402,137.761424 399.761424,140 397,140 Z M397,161 C394.238576,161 392,158.761424 392,156 C392,153.238576 394.238576,151 397,151 C399.761424,151 402,153.238576 402,156 C402,158.761424 399.761424,161 397,161 Z M418,140 C415.238576,140 413,137.761424 413,135 C413,132.238576 415.238576,130 418,130 C420.761424,130 423,132.238576 423,135 C423,137.761424 420.761424,140 418,140 Z M418,161 C415.238576,161 413,158.761424 413,156 C413,153.238576 415.238576,151 418,151 C420.761424,151 423,153.238576 423,156 C423,158.761424 420.761424,161 418,161 Z M439,140 C436.238576,140 434,137.761424 434,135 C434,132.238576 436.238576,130 439,130 C441.761424,130 444,132.238576 444,135 C444,137.761424 441.761424,140 439,140 Z M439,161 C436.238576,161 434,158.761424 434,156 C434,153.238576 436.238576,151 439,151 C441.761424,151 444,153.238576 444,156 C444,158.761424 441.761424,161 439,161 Z M460,140 C457.238576,140 455,137.761424 455,135 C455,132.238576 457.238576,130 460,130 C462.761424,130 465,132.238576 465,135 C465,137.761424 462.761424,140 460,140 Z M460,161 C457.238576,161 455,158.761424 455,156 C455,153.238576 457.238576,151 460,151 C462.761424,151 465,153.238576 465,156 C465,158.761424 462.761424,161 460,161 Z M481,140 C478.238576,140 476,137.761424 476,135 C476,132.238576 478.238576,130 481,130 C483.761424,130 486,132.238576 486,135 C486,137.761424 483.761424,140 481,140 Z M481,161 C478.238576,161 476,158.761424 476,156 C476,153.238576 478.238576,151 481,151 C483.761424,151 486,153.238576 486,156 C486,158.761424 483.761424,161 481,161 Z M502,140 C499.238576,140 497,137.761424 497,135 C497,132.238576 499.238576,130 502,130 C504.761424,130 507,132.238576 507,135 C507,137.761424 504.761424,140 502,140 Z M502,161 C499.238576,161 497,158.761424 497,156 C497,153.238576 499.238576,151 502,151 C504.761424,151 507,153.238576 507,156 C507,158.761424 504.761424,161 502,161 Z M523,140 C520.238576,140 518,137.761424 518,135 C518,132.238576 520.238576,130 523,130 C525.761424,130 528,132.238576 528,135 C528,137.761424 525.761424,140 523,140 Z M523,161 C520.238576,161 518,158.761424 518,156 C518,153.238576 520.238576,151 523,151 C525.761424,151 528,153.238576 528,156 C528,158.761424 525.761424,161 523,161 Z M544,140 C541.238576,140 539,137.761424 539,135 C539,132.238576 541.238576,130 544,130 C546.761424,130 549,132.238576 549,135 C549,137.761424 546.761424,140 544,140 Z M544,161 C541.238576,161 539,158.761424 539,156 C539,153.238576 541.238576,151 544,151 C546.761424,151 549,153.238576 549,156 C549,158.761424 546.761424,161 544,161 Z M565,140 C562.238576,140 560,137.761424 560,135 C560,132.238576 562.238576,130 565,130 C567.761424,130 570,132.238576 570,135 C570,137.761424 567.761424,140 565,140 Z M565,161 C562.238576,161 560,158.761424 560,156 C560,153.238576 562.238576,151 565,151 C567.761424,151 570,153.238576 570,156 C570,158.761424 567.761424,161 565,161 Z M586,140 C583.238576,140 581,137.761424 581,135 C581,132.238576 583.238576,130 586,130 C588.761424,130 591,132.238576 591,135 C591,137.761424 588.761424,140 586,140 Z M586,161 C583.238576,161 581,158.761424 581,156 C581,153.238576 583.238576,151 586,151 C588.761424,151 591,153.238576 591,156 C591,158.761424 588.761424,161 586,161 Z M397,182 C394.238576,182 392,179.761424 392,177 C392,174.238576 394.238576,172 397,172 C399.761424,172 402,174.238576 402,177 C402,179.761424 399.761424,182 397,182 Z M418,182 C415.238576,182 413,179.761424 413,177 C413,174.238576 415.238576,172 418,172 C420.761424,172 423,174.238576 423,177 C423,179.761424 420.761424,182 418,182 Z M439,182 C436.238576,182 434,179.761424 434,177 C434,174.238576 436.238576,172 439,172 C441.761424,172 444,174.238576 444,177 C444,179.761424 441.761424,182 439,182 Z M460,182 C457.238576,182 455,179.761424 455,177 C455,174.238576 457.238576,172 460,172 C462.761424,172 465,174.238576 465,177 C465,179.761424 462.761424,182 460,182 Z M481,182 C478.238576,182 476,179.761424 476,177 C476,174.238576 478.238576,172 481,172 C483.761424,172 486,174.238576 486,177 C486,179.761424 483.761424,182 481,182 Z M502,182 C499.238576,182 497,179.761424 497,177 C497,174.238576 499.238576,172 502,172 C504.761424,172 507,174.238576 507,177 C507,179.761424 504.761424,182 502,182 Z M523,182 C520.238576,182 518,179.761424 518,177 C518,174.238576 520.238576,172 523,172 C525.761424,172 528,174.238576 528,177 C528,179.761424 525.761424,182 523,182 Z M544,182 C541.238576,182 539,179.761424 539,177 C539,174.238576 541.238576,172 544,172 C546.761424,172 549,174.238576 549,177 C549,179.761424 546.761424,182 544,182 Z M565,182 C562.238576,182 560,179.761424 560,177 C560,174.238576 562.238576,172 565,172 C567.761424,172 570,174.238576 570,177 C570,179.761424 567.761424,182 565,182 Z M586,182 C583.238576,182 581,179.761424 581,177 C581,174.238576 583.238576,172 586,172 C588.761424,172 591,174.238576 591,177 C591,179.761424 588.761424,182 586,182 Z M397,203 C394.238576,203 392,200.761424 392,198 C392,195.238576 394.238576,193 397,193 C399.761424,193 402,195.238576 402,198 C402,200.761424 399.761424,203 397,203 Z M418,203 C415.238576,203 413,200.761424 413,198 C413,195.238576 415.238576,193 418,193 C420.761424,193 423,195.238576 423,198 C423,200.761424 420.761424,203 418,203 Z M439,203 C436.238576,203 434,200.761424 434,198 C434,195.238576 436.238576,193 439,193 C441.761424,193 444,195.238576 444,198 C444,200.761424 441.761424,203 439,203 Z M460,203 C457.238576,203 455,200.761424 455,198 C455,195.238576 457.238576,193 460,193 C462.761424,193 465,195.238576 465,198 C465,200.761424 462.761424,203 460,203 Z M481,203 C478.238576,203 476,200.761424 476,198 C476,195.238576 478.238576,193 481,193 C483.761424,193 486,195.238576 486,198 C486,200.761424 483.761424,203 481,203 Z M502,203 C499.238576,203 497,200.761424 497,198 C497,195.238576 499.238576,193 502,193 C504.761424,193 507,195.238576 507,198 C507,200.761424 504.761424,203 502,203 Z M523,203 C520.238576,203 518,200.761424 518,198 C518,195.238576 520.238576,193 523,193 C525.761424,193 528,195.238576 528,198 C528,200.761424 525.761424,203 523,203 Z M544,203 C541.238576,203 539,200.761424 539,198 C539,195.238576 541.238576,193 544,193 C546.761424,193 549,195.238576 549,198 C549,200.761424 546.761424,203 544,203 Z M565,203 C562.238576,203 560,200.761424 560,198 C560,195.238576 562.238576,193 565,193 C567.761424,193 570,195.238576 570,198 C570,200.761424 567.761424,203 565,203 Z M586,203 C583.238576,203 581,200.761424 581,198 C581,195.238576 583.238576,193 586,193 C588.761424,193 591,195.238576 591,198 C591,200.761424 588.761424,203 586,203 Z M397,224 C394.238576,224 392,221.761424 392,219 C392,216.238576 394.238576,214 397,214 C399.761424,214 402,216.238576 402,219 C402,221.761424 399.761424,224 397,224 Z M418,224 C415.238576,224 413,221.761424 413,219 C413,216.238576 415.238576,214 418,214 C420.761424,214 423,216.238576 423,219 C423,221.761424 420.761424,224 418,224 Z M439,224 C436.238576,224 434,221.761424 434,219 C434,216.238576 436.238576,214 439,214 C441.761424,214 444,216.238576 444,219 C444,221.761424 441.761424,224 439,224 Z M460,224 C457.238576,224 455,221.761424 455,219 C455,216.238576 457.238576,214 460,214 C462.761424,214 465,216.238576 465,219 C465,221.761424 462.761424,224 460,224 Z M481,224 C478.238576,224 476,221.761424 476,219 C476,216.238576 478.238576,214 481,214 C483.761424,214 486,216.238576 486,219 C486,221.761424 483.761424,224 481,224 Z M502,224 C499.238576,224 497,221.761424 497,219 C497,216.238576 499.238576,214 502,214 C504.761424,214 507,216.238576 507,219 C507,221.761424 504.761424,224 502,224 Z M523,224 C520.238576,224 518,221.761424 518,219 C518,216.238576 520.238576,214 523,214 C525.761424,214 528,216.238576 528,219 C528,221.761424 525.761424,224 523,224 Z M544,224 C541.238576,224 539,221.761424 539,219 C539,216.238576 541.238576,214 544,214 C546.761424,214 549,216.238576 549,219 C549,221.761424 546.761424,224 544,224 Z M565,224 C562.238576,224 560,221.761424 560,219 C560,216.238576 562.238576,214 565,214 C567.761424,214 570,216.238576 570,219 C570,221.761424 567.761424,224 565,224 Z M586,224 C583.238576,224 581,221.761424 581,219 C581,216.238576 583.238576,214 586,214 C588.761424,214 591,216.238576 591,219 C591,221.761424 588.761424,224 586,224 Z M397,245 C394.238576,245 392,242.761424 392,240 C392,237.238576 394.238576,235 397,235 C399.761424,235 402,237.238576 402,240 C402,242.761424 399.761424,245 397,245 Z M418,245 C415.238576,245 413,242.761424 413,240 C413,237.238576 415.238576,235 418,235 C420.761424,235 423,237.238576 423,240 C423,242.761424 420.761424,245 418,245 Z M439,245 C436.238576,245 434,242.761424 434,240 C434,237.238576 436.238576,235 439,235 C441.761424,235 444,237.238576 444,240 C444,242.761424 441.761424,245 439,245 Z M460,245 C457.238576,245 455,242.761424 455,240 C455,237.238576 457.238576,235 460,235 C462.761424,235 465,237.238576 465,240 C465,242.761424 462.761424,245 460,245 Z M481,245 C478.238576,245 476,242.761424 476,240 C476,237.238576 478.238576,235 481,235 C483.761424,235 486,237.238576 486,240 C486,242.761424 483.761424,245 481,245 Z M502,245 C499.238576,245 497,242.761424 497,240 C497,237.238576 499.238576,235 502,235 C504.761424,235 507,237.238576 507,240 C507,242.761424 504.761424,245 502,245 Z M523,245 C520.238576,245 518,242.761424 518,240 C518,237.238576 520.238576,235 523,235 C525.761424,235 528,237.238576 528,240 C528,242.761424 525.761424,245 523,245 Z M544,245 C541.238576,245 539,242.761424 539,240 C539,237.238576 541.238576,235 544,235 C546.761424,235 549,237.238576 549,240 C549,242.761424 546.761424,245 544,245 Z M565,245 C562.238576,245 560,242.761424 560,240 C560,237.238576 562.238576,235 565,235 C567.761424,235 570,237.238576 570,240 C570,242.761424 567.761424,245 565,245 Z M586,245 C583.238576,245 581,242.761424 581,240 C581,237.238576 583.238576,235 586,235 C588.761424,235 591,237.238576 591,240 C591,242.761424 588.761424,245 586,245 Z M397,266 C394.238576,266 392,263.761424 392,261 C392,258.238576 394.238576,256 397,256 C399.761424,256 402,258.238576 402,261 C402,263.761424 399.761424,266 397,266 Z M418,266 C415.238576,266 413,263.761424 413,261 C413,258.238576 415.238576,256 418,256 C420.761424,256 423,258.238576 423,261 C423,263.761424 420.761424,266 418,266 Z M439,266 C436.238576,266 434,263.761424 434,261 C434,258.238576 436.238576,256 439,256 C441.761424,256 444,258.238576 444,261 C444,263.761424 441.761424,266 439,266 Z M460,266 C457.238576,266 455,263.761424 455,261 C455,258.238576 457.238576,256 460,256 C462.761424,256 465,258.238576 465,261 C465,263.761424 462.761424,266 460,266 Z M481,266 C478.238576,266 476,263.761424 476,261 C476,258.238576 478.238576,256 481,256 C483.761424,256 486,258.238576 486,261 C486,263.761424 483.761424,266 481,266 Z M502,266 C499.238576,266 497,263.761424 497,261 C497,258.238576 499.238576,256 502,256 C504.761424,256 507,258.238576 507,261 C507,263.761424 504.761424,266 502,266 Z M523,266 C520.238576,266 518,263.761424 518,261 C518,258.238576 520.238576,256 523,256 C525.761424,256 528,258.238576 528,261 C528,263.761424 525.761424,266 523,266 Z M544,266 C541.238576,266 539,263.761424 539,261 C539,258.238576 541.238576,256 544,256 C546.761424,256 549,258.238576 549,261 C549,263.761424 546.761424,266 544,266 Z M565,266 C562.238576,266 560,263.761424 560,261 C560,258.238576 562.238576,256 565,256 C567.761424,256 570,258.238576 570,261 C570,263.761424 567.761424,266 565,266 Z M586,266 C583.238576,266 581,263.761424 581,261 C581,258.238576 583.238576,256 586,256 C588.761424,256 591,258.238576 591,261 C591,263.761424 588.761424,266 586,266 Z M397,287 C394.238576,287 392,284.761424 392,282 C392,279.238576 394.238576,277 397,277 C399.761424,277 402,279.238576 402,282 C402,284.761424 399.761424,287 397,287 Z M418,287 C415.238576,287 413,284.761424 413,282 C413,279.238576 415.238576,277 418,277 C420.761424,277 423,279.238576 423,282 C423,284.761424 420.761424,287 418,287 Z M439,287 C436.238576,287 434,284.761424 434,282 C434,279.238576 436.238576,277 439,277 C441.761424,277 444,279.238576 444,282 C444,284.761424 441.761424,287 439,287 Z M460,287 C457.238576,287 455,284.761424 455,282 C455,279.238576 457.238576,277 460,277 C462.761424,277 465,279.238576 465,282 C465,284.761424 462.761424,287 460,287 Z M481,287 C478.238576,287 476,284.761424 476,282 C476,279.238576 478.238576,277 481,277 C483.761424,277 486,279.238576 486,282 C486,284.761424 483.761424,287 481,287 Z M502,287 C499.238576,287 497,284.761424 497,282 C497,279.238576 499.238576,277 502,277 C504.761424,277 507,279.238576 507,282 C507,284.761424 504.761424,287 502,287 Z M523,287 C520.238576,287 518,284.761424 518,282 C518,279.238576 520.238576,277 523,277 C525.761424,277 528,279.238576 528,282 C528,284.761424 525.761424,287 523,287 Z M544,287 C541.238576,287 539,284.761424 539,282 C539,279.238576 541.238576,277 544,277 C546.761424,277 549,279.238576 549,282 C549,284.761424 546.761424,287 544,287 Z M565,287 C562.238576,287 560,284.761424 560,282 C560,279.238576 562.238576,277 565,277 C567.761424,277 570,279.238576 570,282 C570,284.761424 567.761424,287 565,287 Z M586,287 C583.238576,287 581,284.761424 581,282 C581,279.238576 583.238576,277 586,277 C588.761424,277 591,279.238576 591,282 C591,284.761424 588.761424,287 586,287 Z M397,308 C394.238576,308 392,305.761424 392,303 C392,300.238576 394.238576,298 397,298 C399.761424,298 402,300.238576 402,303 C402,305.761424 399.761424,308 397,308 Z M418,308 C415.238576,308 413,305.761424 413,303 C413,300.238576 415.238576,298 418,298 C420.761424,298 423,300.238576 423,303 C423,305.761424 420.761424,308 418,308 Z M439,308 C436.238576,308 434,305.761424 434,303 C434,300.238576 436.238576,298 439,298 C441.761424,298 444,300.238576 444,303 C444,305.761424 441.761424,308 439,308 Z M460,308 C457.238576,308 455,305.761424 455,303 C455,300.238576 457.238576,298 460,298 C462.761424,298 465,300.238576 465,303 C465,305.761424 462.761424,308 460,308 Z M481,308 C478.238576,308 476,305.761424 476,303 C476,300.238576 478.238576,298 481,298 C483.761424,298 486,300.238576 486,303 C486,305.761424 483.761424,308 481,308 Z M502,308 C499.238576,308 497,305.761424 497,303 C497,300.238576 499.238576,298 502,298 C504.761424,298 507,300.238576 507,303 C507,305.761424 504.761424,308 502,308 Z M523,308 C520.238576,308 518,305.761424 518,303 C518,300.238576 520.238576,298 523,298 C525.761424,298 528,300.238576 528,303 C528,305.761424 525.761424,308 523,308 Z M544,308 C541.238576,308 539,305.761424 539,303 C539,300.238576 541.238576,298 544,298 C546.761424,298 549,300.238576 549,303 C549,305.761424 546.761424,308 544,308 Z M565,308 C562.238576,308 560,305.761424 560,303 C560,300.238576 562.238576,298 565,298 C567.761424,298 570,300.238576 570,303 C570,305.761424 567.761424,308 565,308 Z M586,308 C583.238576,308 581,305.761424 581,303 C581,300.238576 583.238576,298 586,298 C588.761424,298 591,300.238576 591,303 C591,305.761424 588.761424,308 586,308 Z M397,329 C394.238576,329 392,326.761424 392,324 C392,321.238576 394.238576,319 397,319 C399.761424,319 402,321.238576 402,324 C402,326.761424 399.761424,329 397,329 Z M418,329 C415.238576,329 413,326.761424 413,324 C413,321.238576 415.238576,319 418,319 C420.761424,319 423,321.238576 423,324 C423,326.761424 420.761424,329 418,329 Z M439,329 C436.238576,329 434,326.761424 434,324 C434,321.238576 436.238576,319 439,319 C441.761424,319 444,321.238576 444,324 C444,326.761424 441.761424,329 439,329 Z M460,329 C457.238576,329 455,326.761424 455,324 C455,321.238576 457.238576,319 460,319 C462.761424,319 465,321.238576 465,324 C465,326.761424 462.761424,329 460,329 Z M481,329 C478.238576,329 476,326.761424 476,324 C476,321.238576 478.238576,319 481,319 C483.761424,319 486,321.238576 486,324 C486,326.761424 483.761424,329 481,329 Z M502,329 C499.238576,329 497,326.761424 497,324 C497,321.238576 499.238576,319 502,319 C504.761424,319 507,321.238576 507,324 C507,326.761424 504.761424,329 502,329 Z M523,329 C520.238576,329 518,326.761424 518,324 C518,321.238576 520.238576,319 523,319 C525.761424,319 528,321.238576 528,324 C528,326.761424 525.761424,329 523,329 Z M544,329 C541.238576,329 539,326.761424 539,324 C539,321.238576 541.238576,319 544,319 C546.761424,319 549,321.238576 549,324 C549,326.761424 546.761424,329 544,329 Z M565,329 C562.238576,329 560,326.761424 560,324 C560,321.238576 562.238576,319 565,319 C567.761424,319 570,321.238576 570,324 C570,326.761424 567.761424,329 565,329 Z M586,329 C583.238576,329 581,326.761424 581,324 C581,321.238576 583.238576,319 586,319 C588.761424,319 591,321.238576 591,324 C591,326.761424 588.761424,329 586,329 Z M397,350 C394.238576,350 392,347.761424 392,345 C392,342.238576 394.238576,340 397,340 C399.761424,340 402,342.238576 402,345 C402,347.761424 399.761424,350 397,350 Z M418,350 C415.238576,350 413,347.761424 413,345 C413,342.238576 415.238576,340 418,340 C420.761424,340 423,342.238576 423,345 C423,347.761424 420.761424,350 418,350 Z M439,350 C436.238576,350 434,347.761424 434,345 C434,342.238576 436.238576,340 439,340 C441.761424,340 444,342.238576 444,345 C444,347.761424 441.761424,350 439,350 Z M460,350 C457.238576,350 455,347.761424 455,345 C455,342.238576 457.238576,340 460,340 C462.761424,340 465,342.238576 465,345 C465,347.761424 462.761424,350 460,350 Z M481,350 C478.238576,350 476,347.761424 476,345 C476,342.238576 478.238576,340 481,340 C483.761424,340 486,342.238576 486,345 C486,347.761424 483.761424,350 481,350 Z M502,350 C499.238576,350 497,347.761424 497,345 C497,342.238576 499.238576,340 502,340 C504.761424,340 507,342.238576 507,345 C507,347.761424 504.761424,350 502,350 Z M523,350 C520.238576,350 518,347.761424 518,345 C518,342.238576 520.238576,340 523,340 C525.761424,340 528,342.238576 528,345 C528,347.761424 525.761424,350 523,350 Z M544,350 C541.238576,350 539,347.761424 539,345 C539,342.238576 541.238576,340 544,340 C546.761424,340 549,342.238576 549,345 C549,347.761424 546.761424,350 544,350 Z M565,350 C562.238576,350 560,347.761424 560,345 C560,342.238576 562.238576,340 565,340 C567.761424,340 570,342.238576 570,345 C570,347.761424 567.761424,350 565,350 Z M586,350 C583.238576,350 581,347.761424 581,345 C581,342.238576 583.238576,340 586,340 C588.761424,340 591,342.238576 591,345 C591,347.761424 588.761424,350 586,350 Z M216.006904,139.650593 C216.93742,139.53634 217.615498,139.69807 218.041158,140.135789 C218.466818,140.573507 218.711064,141.048251 218.773903,141.560035 L217.738708,141.687141 C217.636209,141.3652 217.505686,141.119513 217.347135,140.950071 C217.052275,140.632071 216.648959,140.504492 216.137175,140.567331 C215.551725,140.639216 215.119678,140.966769 214.841021,141.55 C214.562364,142.133232 214.465538,142.931246 214.550541,143.944066 C214.747603,143.56173 215.017646,143.260956 215.360675,143.041735 C215.675068,142.845708 216.037749,142.722466 216.448727,142.672004 C217.146614,142.586314 217.782691,142.734508 218.356976,143.116589 C218.93126,143.49867 219.272668,144.131697 219.381208,145.015688 C219.474039,145.771732 219.31008,146.471729 218.889328,147.1157 C218.468576,147.75967 217.802645,148.137586 216.891514,148.249459 C216.112206,148.345146 215.403231,148.132112 214.764569,147.61035 C214.125906,147.088588 213.720653,146.127895 213.548797,144.728243 C213.421691,143.693044 213.439872,142.79941 213.60334,142.047316 C213.918509,140.607543 214.719689,139.808643 216.006904,139.650593 Z M216.870312,147.307522 C217.420868,147.239922 217.810078,147.004211 218.037954,146.600381 C218.26583,146.196551 218.348823,145.742628 218.286936,145.238598 C218.23457,144.812111 218.062576,144.420981 217.770948,144.065196 C217.47932,143.70941 217.011709,143.571032 216.368102,143.650057 C215.918352,143.70528 215.542185,143.902986 215.239591,144.243181 C214.936996,144.583377 214.822595,145.053947 214.896383,145.654905 C214.961127,146.182198 215.16963,146.606233 215.521898,146.927024 C215.874167,147.247814 216.323634,147.374645 216.870312,147.307522 Z M222.373564,138.904286 C223.451412,138.771943 224.285216,139.120184 224.874999,139.949022 C225.331468,140.589576 225.63301,141.506922 225.779634,142.701085 C225.918642,143.833213 225.864954,144.79024 225.618568,145.572193 C225.260486,146.694515 224.527023,147.323743 223.418157,147.459895 C222.417852,147.582717 221.620132,147.239883 221.024975,146.431384 C220.528852,145.756342 220.205816,144.808184 220.055859,143.586881 C219.939702,142.640855 219.962098,141.813609 220.12305,141.105115 C220.42536,139.784989 221.175524,139.051387 222.373564,138.904286 Z M223.295233,146.506834 C223.838034,146.440186 224.240815,146.146727 224.503588,145.626448 C224.766361,145.106168 224.817294,144.190803 224.656387,142.880326 C224.54023,141.934301 224.328351,141.170255 224.020743,140.588167 C223.713135,140.006079 223.223965,139.756217 222.553217,139.838574 C221.93675,139.914267 221.521622,140.25942 221.307822,140.874045 C221.094021,141.488669 221.056387,142.360094 221.194919,143.488345 C221.299175,144.337442 221.474071,145.008623 221.719613,145.50191 C222.095407,146.254696 222.620608,146.589667 223.295233,146.506834 Z M184.741253,152.594284 L184.399526,151.86145 C185.058515,151.472266 185.487572,151.13535 185.68671,150.850692 C185.885849,150.566033 185.915662,150.0985 185.776149,149.448081 L186.530226,149.096449 L190.061399,156.669076 L189.041803,157.144521 L186.530856,151.759778 L184.741253,152.594284 Z M194.460739,145.514762 L194.849514,146.348495 C194.715843,146.699603 194.583349,147.263504 194.45203,148.040214 C194.32071,148.816925 194.257762,149.617773 194.263182,150.442783 C194.263888,151.248441 194.311701,151.961005 194.406621,152.580497 C194.467388,152.97886 194.597937,153.605433 194.798274,154.460235 L193.741505,154.953014 C193.305391,153.38924 193.162884,151.697201 193.31398,149.876847 C193.406094,148.808091 193.57664,147.842854 193.825624,146.981105 L189.61979,148.942318 L189.171583,147.981136 L194.460739,145.514762 Z M161.215515,166.362118 C161.912217,165.734805 162.56043,165.478357 163.160175,165.592767 C163.75992,165.707176 164.232297,165.95597 164.577319,166.339156 L163.802242,167.037039 C163.533622,166.832111 163.285783,166.705721 163.058718,166.657863 C162.634786,166.566497 162.231233,166.693324 161.848047,167.038346 C161.409705,167.43303 161.24367,167.949158 161.349935,168.586745 C161.456201,169.224331 161.834608,169.933563 162.485168,170.714461 C162.427293,170.288239 162.475981,169.88697 162.631235,169.51064 C162.776334,169.169736 163.002736,168.860757 163.310445,168.583694 C163.832972,168.113209 164.439016,167.869764 165.128595,167.85335 C165.818174,167.836937 166.460928,168.159658 167.056875,168.821525 C167.566567,169.387595 167.833762,170.055042 167.858469,170.823885 C167.883175,171.592728 167.554439,172.284262 166.872252,172.898506 C166.288764,173.42388 165.585815,173.656024 164.763383,173.594943 C163.940951,173.533863 163.057956,172.979353 162.114373,171.931398 C161.416487,171.156317 160.918813,170.413867 160.621335,169.704026 C160.053686,168.34386 160.251744,167.229902 161.215515,166.362118 Z M166.314612,172.139076 C166.726827,171.767916 166.910451,171.351591 166.865489,170.890089 C166.820527,170.428586 166.628151,170.009151 166.288356,169.631771 C166.000838,169.312449 165.635605,169.090706 165.192648,168.966535 C164.74969,168.842364 164.287275,168.997222 163.80539,169.431113 C163.468651,169.734314 163.273912,170.112026 163.22117,170.564259 C163.168427,171.016492 163.344622,171.467578 163.749762,171.917532 C164.10524,172.312329 164.519252,172.540086 164.991811,172.600809 C165.46437,172.661532 165.9053,172.507623 166.314612,172.139076 Z M168.875423,167.925246 C169.330202,168.325248 169.816124,168.447521 170.333204,168.292068 C170.597405,168.211872 170.851425,168.061996 171.09527,167.842437 C171.559738,167.424228 171.770427,166.96645 171.727344,166.469089 C171.684262,165.971728 171.500667,165.543072 171.176555,165.18311 C170.784484,164.747671 170.348481,164.530517 169.868531,164.53164 C169.388582,164.532763 168.962826,164.700606 168.591252,165.035173 C168.32128,165.278257 168.136823,165.538956 168.037876,165.81728 C167.938928,166.095603 167.904878,166.389078 167.935724,166.697714 L167.221157,167.270152 L164.672933,163.485582 L167.91258,160.568591 L168.59478,161.32625 L165.942972,163.713949 L167.237789,165.686148 C167.283611,165.445146 167.347005,165.238261 167.427974,165.065484 C167.573953,164.760583 167.799342,164.470912 168.104149,164.196463 C168.676025,163.681543 169.32678,163.429377 170.056434,163.439957 C170.786088,163.450538 171.405751,163.738858 171.915443,164.304929 C172.446046,164.894222 172.731754,165.577851 172.772577,166.355837 C172.813399,167.133823 172.434664,167.882203 171.63636,168.600999 C171.128349,169.058415 170.5504,169.319928 169.902497,169.385547 C169.254594,169.451165 168.64082,169.20879 168.061157,168.658415 L168.875423,167.925246 Z M140.123242,201.376671 L139.396483,201.022207 C139.663692,200.305039 139.785104,199.773192 139.760722,199.426649 C139.73634,199.080105 139.465282,198.698003 138.947538,198.28033 L139.312277,197.532505 L146.822122,201.195301 L146.328955,202.206445 L140.988854,199.601904 L140.123242,201.376671 Z M144.934593,193.944596 C145.138368,193.526795 145.180882,193.143347 145.062136,192.79424 C144.943389,192.445133 144.722516,192.191813 144.399511,192.034273 C144.118636,191.897281 143.805791,191.88377 143.460965,191.993739 C143.116139,192.103708 142.831569,192.388655 142.607245,192.848587 C142.384633,193.305008 142.341285,193.692395 142.477198,194.010759 C142.613112,194.329124 142.839057,194.565361 143.155041,194.719476 C143.509645,194.892428 143.851218,194.896047 144.179771,194.730334 C144.508324,194.564621 144.759929,194.302711 144.934593,193.944596 Z M148.696705,195.707789 C148.910754,195.268923 148.969921,194.846877 148.874205,194.441638 C148.77849,194.036399 148.495404,193.719054 148.024939,193.489593 C147.53692,193.25157 147.093746,193.220128 146.695406,193.395264 C146.297065,193.570401 145.984025,193.891442 145.756276,194.358396 C145.535377,194.811306 145.484175,195.243755 145.602668,195.655757 C145.721162,196.067759 146.008614,196.385061 146.465036,196.607673 C146.85826,196.799461 147.261723,196.834353 147.675438,196.712349 C148.089152,196.590344 148.429571,196.255495 148.696705,195.707789 Z M144.66867,195.412089 C144.427891,195.620612 144.196059,195.761784 143.973169,195.835611 C143.557015,195.975982 143.124245,195.936576 142.674846,195.717389 C142.113096,195.443406 141.729668,195.004324 141.524549,194.40013 C141.31943,193.795937 141.399239,193.119936 141.763979,192.372107 C142.116733,191.648855 142.583746,191.174744 143.165032,190.94976 C143.746319,190.724776 144.291496,190.736433 144.800581,190.98473 C145.271046,191.214191 145.593756,191.519353 145.76872,191.900225 C145.868663,192.114123 145.929134,192.400034 145.950134,192.757967 C146.246485,192.515702 146.531363,192.350422 146.804774,192.262121 C147.318545,192.099822 147.856297,192.155664 148.418046,192.429647 C149.081612,192.75329 149.535495,193.250638 149.779708,193.921706 C150.023921,194.592775 149.947391,195.335566 149.550115,196.150102 C149.192225,196.883887 148.690321,197.407258 148.044389,197.72023 C147.398457,198.033203 146.696321,198.004751 145.93796,197.634874 C145.492071,197.417399 145.159836,197.12063 144.941243,196.744555 C144.722651,196.368481 144.631794,195.92433 144.66867,195.412089 Z M133.278532,213.602435 L134.167108,213.840529 C134.35015,214.168615 134.696958,214.63258 135.207542,215.232436 C135.718127,215.832293 136.291149,216.395289 136.926628,216.921443 C137.544252,217.438769 138.120841,217.86017 138.656413,218.185659 C139.000637,218.395172 139.564535,218.697918 140.348125,219.093907 L140.046338,220.220192 C138.568089,219.5491 137.18031,218.570644 135.882961,217.284797 C135.123456,216.527251 134.493666,215.776162 133.993572,215.031508 L132.79249,219.514008 L131.76808,219.239518 L133.278532,213.602435 Z M134.085973,210.045692 C134.367036,208.996752 135.002268,208.354116 135.991689,208.117767 C136.756597,207.934493 137.720105,207.998551 138.88224,208.309944 C139.984005,208.605161 140.851232,209.013449 141.483948,209.534818 C142.390408,210.287256 142.699058,211.203024 142.409907,212.28215 C142.149064,213.255626 141.532364,213.866831 140.559786,214.115783 C139.748047,214.322905 138.747919,214.267232 137.559372,213.948761 C136.638719,213.702073 135.880099,213.371415 135.283489,212.956778 C134.172737,212.181953 133.773569,211.211601 134.085973,210.045692 Z M141.480196,212.0391 C141.621738,211.510857 141.500532,211.027473 141.116574,210.588934 C140.732616,210.150395 139.902984,209.76027 138.627654,209.418546 C137.707001,209.171858 136.919219,209.082093 136.264284,209.149247 C135.60935,209.216402 135.194435,209.576353 135.019529,210.229111 C134.858778,210.829044 135.023289,211.343241 135.513067,211.771716 C136.002846,212.20019 136.796719,212.561525 137.894711,212.855731 C138.721034,213.077144 139.40886,213.166412 139.958209,213.123539 C140.796955,213.057107 141.304279,212.695631 141.480196,212.0391 Z M130.852148,256.009928 L131.760745,255.866021 C132.061407,256.091293 132.566943,256.374086 133.277368,256.714409 C133.987794,257.054732 134.740267,257.335985 135.534812,257.558178 C136.309455,257.779569 137.007594,257.930018 137.629252,258.00953 C138.028933,258.060921 138.667218,258.108135 139.544126,258.151175 L139.726531,259.302835 C138.103125,259.29102 136.437353,258.961617 134.729164,258.314616 C133.7272,257.931482 132.846363,257.501487 132.086626,257.024618 L132.81258,261.60811 L131.76509,261.774016 L130.852148,256.009928 Z M136.594005,253.196203 C137.177165,253.03265 137.544363,252.691716 137.695611,252.173391 C137.772248,251.908135 137.784901,251.613468 137.73357,251.289381 C137.635798,250.672073 137.366623,250.24605 136.926036,250.0113 C136.485449,249.77655 136.025956,249.697063 135.547542,249.772837 C134.968815,249.864498 134.54923,250.111891 134.288773,250.515022 C134.028315,250.918153 133.937197,251.366635 134.015415,251.860482 C134.072245,252.219293 134.190423,252.515978 134.369954,252.750548 C134.549485,252.985118 134.777069,253.173513 135.052713,253.315739 L135.143619,254.226797 L130.581749,254.302693 L129.899793,249.99699 L130.906772,249.8375 L131.464986,253.361927 L133.824219,253.350138 C133.647055,253.18045 133.508073,253.014605 133.407269,252.852597 C133.231063,252.564109 133.110881,252.217315 133.046718,251.812207 C132.926336,251.052146 133.069278,250.369037 133.47555,249.76286 C133.881821,249.156684 134.46112,248.794021 135.213464,248.674861 C135.996674,248.550813 136.725622,248.683529 137.400329,249.073014 C138.075037,249.462498 138.496407,250.187729 138.664452,251.248728 C138.771391,251.923908 138.675941,252.551047 138.3781,253.130163 C138.080259,253.709279 137.542701,254.092026 136.76541,254.278416 L136.594005,253.196203 Z M159.140321,299.148909 C158.532717,299.542076 157.936103,299.790856 157.350464,299.895259 C156.764824,299.999662 156.073472,299.875481 155.276388,299.522712 L154.088953,298.994858 C153.555745,298.759391 153.145703,298.620338 152.858816,298.577696 C152.408241,298.509129 152.013886,298.597682 151.67574,298.843359 C151.280711,299.130365 151.053162,299.476752 150.993088,299.882529 C150.933014,300.288306 151.046478,300.688704 151.333484,301.083734 C151.758253,301.668378 152.273356,301.912161 152.878809,301.815092 C153.203077,301.762977 153.579953,301.590556 154.009449,301.297822 L154.639711,302.165304 C154.041858,302.585184 153.480716,302.826299 152.956269,302.888657 C152.030302,302.996487 151.227515,302.582693 150.547885,301.647262 C149.983058,300.869844 149.780502,300.149114 149.940212,299.485053 C150.099923,298.820992 150.437332,298.301841 150.952451,297.927585 C151.496012,297.532665 152.099469,297.386343 152.76284,297.488614 C153.14794,297.546811 153.707866,297.745958 154.442635,298.08606 L155.274735,298.473738 C155.670401,298.659455 156.009944,298.784545 156.293374,298.849012 C156.79792,298.965279 157.247527,298.942806 157.64221,298.781591 L154.948959,295.07465 L155.754816,294.489161 L159.140321,299.148909 Z M146.741799,296.358791 C146.103497,295.480244 146.003841,294.582153 146.442825,293.664488 C146.781767,292.954705 147.437905,292.246232 148.411258,291.53905 C149.334048,290.868604 150.19711,290.451585 151.000472,290.287981 C152.155679,290.057054 153.061604,290.393499 153.718274,291.297327 C154.310654,292.112669 154.397547,292.976579 153.978956,293.889084 C153.629076,294.65027 152.956409,295.392479 151.960934,296.115734 C151.189836,296.67597 150.455451,297.057438 149.757759,297.260152 C148.456587,297.635755 147.451277,297.335304 146.741799,296.358791 Z M152.944303,291.866893 C152.622857,291.424459 152.170919,291.214451 151.588478,291.236861 C151.006036,291.259271 150.180748,291.658502 149.112587,292.434566 C148.341489,292.994802 147.775961,293.550532 147.415986,294.101774 C147.056011,294.653016 147.074632,295.201989 147.471848,295.74871 C147.83692,296.251188 148.340056,296.446933 148.981271,296.335952 C149.622486,296.22497 150.402896,295.83541 151.322526,295.16726 C152.014618,294.664426 152.516855,294.186063 152.829253,293.732158 C153.305466,293.038523 153.343816,292.416774 152.944303,291.866893 Z M187.418248,324.408908 C187.682202,323.889227 187.688856,323.428487 187.438211,323.026674 C187.310744,322.817764 187.130303,322.645928 186.896881,322.511162 C186.460483,322.259208 185.983387,322.226196 185.465578,322.412125 C184.94777,322.598055 184.303309,323.210393 183.532176,324.249157 C183.9207,324.044967 184.302248,323.964178 184.676833,324.006788 C185.051418,324.049397 185.411234,324.17031 185.756293,324.36953 C186.456559,324.773829 186.88453,325.311845 187.040219,325.983596 C187.195907,326.655346 187.07551,327.334579 186.679024,328.021313 C186.298163,328.680984 185.761924,329.144938 185.070291,329.413189 C184.378659,329.681439 183.640434,329.589002 182.855595,329.135875 C181.796738,328.524543 181.341424,327.625687 181.48964,326.439278 C181.569102,325.786017 181.83637,325.065286 182.29145,324.277064 C182.805125,323.387354 183.393822,322.676291 184.057559,322.143854 C185.160883,321.256285 186.241956,321.118168 187.300813,321.729499 C188.011228,322.139657 188.443376,322.637236 188.597271,323.22225 C188.751165,323.807264 188.666003,324.380545 188.341783,324.942111 L187.418248,324.408908 Z M185.171618,325.100967 C184.809644,324.891982 184.410121,324.820312 183.973036,324.885956 C183.535951,324.9516 183.145538,325.282115 182.801786,325.877511 C182.493191,326.412013 182.397682,326.887983 182.515257,327.305434 C182.632832,327.722886 182.899666,328.051724 183.315766,328.29196 C183.762312,328.549773 184.203094,328.604669 184.638123,328.456648 C185.073153,328.308626 185.435194,327.984284 185.724258,327.48361 C185.997697,327.01 186.099962,326.56725 186.031056,326.155345 C185.962151,325.74344 185.675674,325.391984 185.171618,325.100967 Z M177.025931,325.756585 C176.085477,325.213614 175.629149,324.4337 175.656934,323.416821 C175.677878,322.630541 175.989127,321.716444 176.590693,320.674502 C177.161008,319.686687 177.779838,318.954682 178.447202,318.478466 C179.40861,317.797638 180.373058,317.736524 181.340576,318.29512 C182.213371,318.799029 182.644136,319.552908 182.632883,320.556779 C182.622854,321.394465 182.310226,322.346106 181.694988,323.411728 C181.218424,324.237163 180.702687,324.884353 180.147764,325.353318 C179.111857,326.225683 178.071256,326.360104 177.025931,325.756585 Z M180.865181,319.130246 C180.391571,318.856807 179.893288,318.848775 179.370316,319.106147 C178.847344,319.36352 178.255788,320.063911 177.595628,321.207341 C177.119063,322.032776 176.828464,322.770482 176.723821,323.420481 C176.619178,324.07048 176.859476,324.564419 177.444722,324.902311 C177.982608,325.21286 178.521862,325.187038 179.062501,324.824846 C179.60314,324.462653 180.157632,323.789351 180.725995,322.804919 C181.153731,322.064057 181.41798,321.422773 181.518749,320.881046 C181.671665,320.053686 181.453811,319.470092 180.865181,319.130246 Z M288.533186,164.138948 C288.20037,164.64497 288.146914,165.143181 288.372818,165.633593 C288.489003,165.884062 288.672773,166.114751 288.924132,166.325667 C289.402912,166.727411 289.885558,166.87234 290.372083,166.760457 C290.858607,166.648574 291.25754,166.407109 291.568892,166.036054 C291.945527,165.587198 292.099888,165.125215 292.03198,164.650093 C291.964071,164.174971 291.738608,163.776718 291.355584,163.455322 C291.077293,163.221808 290.793459,163.075429 290.504074,163.01618 C290.214688,162.95693 289.91933,162.964055 289.617991,163.037555 L288.951675,162.40961 L292.34477,159.359475 L295.684245,162.161627 L295.028902,162.942633 L292.295381,160.648936 L290.522579,162.205629 C290.767612,162.217464 290.981307,162.251449 291.163671,162.307584 C291.485921,162.409708 291.804141,162.592589 292.11834,162.856234 C292.707839,163.350882 293.048118,163.960209 293.139189,164.684234 C293.23026,165.408259 293.030986,166.062019 292.54136,166.645532 C292.031647,167.252985 291.394433,167.631055 290.6297,167.779755 C289.864967,167.928455 289.071161,167.657561 288.248258,166.967063 C287.724592,166.527655 287.385189,165.991726 287.230038,165.359261 C287.074887,164.726796 287.229482,164.085263 287.693828,163.434644 L288.533186,164.138948 Z M293.645635,168.428802 C293.312818,168.934825 293.259363,169.433035 293.485267,169.923447 C293.601452,170.173916 293.785222,170.404605 294.036581,170.615521 C294.515361,171.017265 294.998007,171.162194 295.484532,171.050311 C295.971056,170.938428 296.369989,170.696963 296.681341,170.325908 C297.057976,169.877052 297.212337,169.415069 297.144428,168.939947 C297.07652,168.464825 296.851057,168.066572 296.468033,167.745176 C296.189742,167.511662 295.905908,167.365283 295.616523,167.306034 C295.327137,167.246784 295.031779,167.253909 294.73044,167.327409 L294.064124,166.699464 L297.457218,163.649329 L300.796693,166.451481 L300.141351,167.232487 L297.40783,164.93879 L295.635028,166.495483 C295.880061,166.507318 296.093756,166.541303 296.27612,166.597438 C296.59837,166.699562 296.91659,166.882443 297.230789,167.146088 C297.820287,167.640736 298.160567,168.250063 298.251638,168.974088 C298.342709,169.698113 298.143435,170.351873 297.653809,170.935386 C297.144096,171.542839 296.506882,171.920909 295.742149,172.069609 C294.977416,172.218309 294.18361,171.947415 293.360707,171.256917 C292.837041,170.817509 292.497638,170.28158 292.342487,169.649115 C292.187336,169.01665 292.341931,168.375117 292.806277,167.724498 L293.645635,168.428802 Z M236.675781,332.580078 C236.636719,333.302738 236.487306,333.931638 236.227539,334.466797 C235.967772,335.001956 235.460941,335.488279 234.707031,335.925781 L233.582031,336.576172 C233.078122,336.869142 232.72461,337.11914 232.521484,337.326172 C232.20117,337.650392 232.041016,338.021482 232.041016,338.439453 C232.041016,338.927737 232.187499,339.315428 232.480469,339.602539 C232.773439,339.88965 233.16406,340.033203 233.652344,340.033203 C234.375004,340.033203 234.874999,339.759768 235.152344,339.212891 C235.300782,338.91992 235.382812,338.513674 235.398438,337.994141 L236.470703,337.994141 C236.458984,338.724613 236.32422,339.32031 236.066406,339.78125 C235.609373,340.593754 234.80274,341 233.646484,341 C232.685542,341 231.983401,340.740237 231.540039,340.220703 C231.096677,339.701169 230.875,339.12305 230.875,338.486328 C230.875,337.81445 231.111326,337.240237 231.583984,336.763672 C231.857423,336.486327 232.347653,336.150393 233.054688,335.755859 L233.857422,335.310547 C234.240236,335.099608 234.541015,334.898438 234.759766,334.707031 C235.150393,334.367186 235.396484,333.990236 235.498047,333.576172 L230.916016,333.576172 L230.916016,332.580078 L236.675781,332.580078 Z M230.001953,332.580078 C229.96289,333.302738 229.813478,333.931638 229.553711,334.466797 C229.293944,335.001956 228.787113,335.488279 228.033203,335.925781 L226.908203,336.576172 C226.404294,336.869142 226.050782,337.11914 225.847656,337.326172 C225.527342,337.650392 225.367188,338.021482 225.367188,338.439453 C225.367188,338.927737 225.51367,339.315428 225.806641,339.602539 C226.099611,339.88965 226.490232,340.033203 226.978516,340.033203 C227.701175,340.033203 228.20117,339.759768 228.478516,339.212891 C228.626954,338.91992 228.708984,338.513674 228.724609,337.994141 L229.796875,337.994141 C229.785156,338.724613 229.650392,339.32031 229.392578,339.78125 C228.935545,340.593754 228.128912,341 226.972656,341 C226.011714,341 225.309573,340.740237 224.866211,340.220703 C224.422849,339.701169 224.201172,339.12305 224.201172,338.486328 C224.201172,337.81445 224.437498,337.240237 224.910156,336.763672 C225.183595,336.486327 225.673825,336.150393 226.380859,335.755859 L227.183594,335.310547 C227.566408,335.099608 227.867186,334.898438 228.085938,334.707031 C228.476564,334.367186 228.722656,333.990236 228.824219,333.576172 L224.242188,333.576172 L224.242188,332.580078 L230.001953,332.580078 Z M271.904091,330.170306 L272.180646,330.930136 C271.490246,331.260403 271.033457,331.558642 270.810267,331.824862 C270.587076,332.091082 270.516629,332.554236 270.598923,333.21434 L269.817069,333.498912 L266.95933,325.647339 L268.016485,325.262567 L270.048565,330.845662 L271.904091,330.170306 Z M266.464152,332.150282 L266.740707,332.910112 C266.050306,333.240379 265.593518,333.538618 265.370327,333.804838 C265.147137,334.071058 265.07669,334.534212 265.158983,335.194316 L264.37713,335.478888 L261.519391,327.627315 L262.576545,327.242543 L264.608626,332.825638 L266.464152,332.150282 Z M259.059335,337.451819 C258.038882,337.823234 257.148112,337.671482 256.386997,336.99656 C255.798134,336.475106 255.297963,335.649104 254.886468,334.518531 C254.496349,333.446689 254.333377,332.502114 254.397547,331.684777 C254.493984,330.510669 255.067103,329.732575 256.116921,329.350472 C257.06396,329.005778 257.918354,329.160377 258.680131,329.814274 C259.31539,330.360411 259.843435,331.211601 260.264282,332.367869 C260.590272,333.263518 260.754539,334.0746 260.75709,334.801141 C260.759491,336.155438 260.193579,337.038988 259.059335,337.451819 Z M256.451087,330.251454 C255.93719,330.438497 255.610746,330.815041 255.471745,331.381097 C255.332745,331.947153 255.48903,332.850514 255.940606,334.091208 C256.266595,334.986857 256.644917,335.683658 257.075582,336.18163 C257.506247,336.679603 258.039087,336.813022 258.674117,336.58189 C259.257757,336.369462 259.584602,335.939772 259.654663,335.292805 C259.724723,334.645839 259.565364,333.788283 259.176582,332.720111 C258.883993,331.91623 258.562596,331.301594 258.212383,330.876185 C257.67688,330.227228 257.089788,330.018986 256.451087,330.251454 Z M291.474002,308.760513 C291.888134,309.354026 292.157585,309.941593 292.282362,310.523233 C292.40714,311.104872 292.307162,311.800137 291.982426,312.609046 L291.496335,313.81418 C291.27962,314.355281 291.154962,314.769926 291.122358,315.058126 C291.069557,315.51082 291.17182,315.901844 291.429148,316.23121 C291.729766,316.615983 292.083882,316.831304 292.491509,316.87718 C292.899136,316.923056 293.29533,316.795687 293.680103,316.495069 C294.249566,316.050156 294.475224,315.526858 294.357084,314.925162 C294.293684,314.602911 294.108215,314.232282 293.800671,313.813264 L294.645628,313.153111 C295.086117,313.735946 295.346669,314.288331 295.427292,314.810282 C295.567372,315.731922 295.181847,316.548661 294.270705,317.260523 C293.513472,317.852138 292.800251,318.079724 292.13102,317.943286 C291.46179,317.806848 290.93118,317.487763 290.539174,316.986019 C290.125525,316.456571 289.958231,315.858589 290.037289,315.192053 C290.082011,314.805156 290.261495,314.238621 290.575747,313.49243 L290.934149,312.647307 C291.105944,312.245401 291.219108,311.901699 291.273644,311.616192 C291.372233,311.107896 291.334082,310.659347 291.159191,310.270531 L287.548501,313.091511 L286.935245,312.306579 L291.474002,308.760513 Z M285.213526,317.421609 L287.554724,320.418204 L287.332844,315.765816 L285.213526,317.421609 Z M283.370727,315.091485 L284.633314,316.707522 L287.532948,314.442081 L288.167848,315.254717 L288.421658,321.822863 L287.719836,322.371187 L284.36857,318.081761 L283.39433,318.842921 L282.827969,318.118012 L283.802209,317.356853 L282.539622,315.740815 L283.370727,315.091485 Z M324.460534,272.654772 L325.199221,272.983657 C324.957203,273.709713 324.854427,274.245473 324.890888,274.590955 C324.927349,274.936436 325.211578,275.308846 325.743583,275.708196 L325.405165,276.468294 L317.772065,273.069819 L318.229643,272.04208 L323.657388,274.458668 L324.460534,272.654772 Z M318.136229,277.510016 C317.558073,277.329571 317.064428,277.415512 316.655281,277.767841 C316.44654,277.948564 316.275441,278.188801 316.14198,278.488559 C315.887768,279.059528 315.881489,279.563424 316.123142,280.000263 C316.364795,280.437102 316.706867,280.754023 317.149368,280.951037 C317.684651,281.189361 318.171285,281.210402 318.609284,281.014163 C319.047283,280.817924 319.367962,280.491422 319.571331,280.034647 C319.719092,279.702771 319.781565,279.389585 319.758754,279.095078 C319.735943,278.800572 319.647682,278.518619 319.493969,278.249213 L319.913927,277.435624 L323.781169,279.856544 L322.008052,283.839031 L321.076663,283.424351 L322.528046,280.164492 L320.543006,278.889449 C320.59917,279.128252 320.625404,279.343036 320.62171,279.533809 C320.612366,279.871724 320.524283,280.228026 320.357456,280.602724 C320.044458,281.305729 319.552529,281.80078 318.881653,282.087892 C318.210778,282.375003 317.527417,282.363649 316.831549,282.053829 C316.107132,281.731297 315.568067,281.222979 315.214339,280.528858 C314.86061,279.834737 314.902208,278.997012 315.339135,278.01566 C315.617179,277.391163 316.038794,276.917185 316.603993,276.593714 C317.169193,276.270242 317.828486,276.242018 318.581892,276.509041 L318.136229,277.510016 Z M320.415832,287.760954 C319.974139,288.753013 319.246197,289.288364 318.231984,289.367024 C317.447823,289.428384 316.506199,289.214388 315.407084,288.725031 C314.365066,288.261094 313.572386,287.722169 313.02902,287.10824 C312.251427,286.223265 312.089835,285.270488 312.544239,284.249881 C312.954155,283.329194 313.658877,282.821987 314.658425,282.728246 C315.492571,282.650657 316.471676,282.8621 317.595771,283.362579 C318.466499,283.750252 319.164052,284.195513 319.688454,284.698376 C320.664321,285.637422 320.906778,286.658271 320.415832,287.760954 Z M313.424482,284.635377 C313.202047,285.134975 313.246143,285.631368 313.556771,286.124572 C313.8674,286.617776 314.625788,287.132882 315.83196,287.669904 C316.702687,288.057577 317.466728,288.269473 318.124105,288.305599 C318.781481,288.341726 319.247596,288.051113 319.522462,287.433753 C319.775085,286.866353 319.693038,286.332752 319.276317,285.832934 C318.859597,285.333116 318.132023,284.852041 317.093573,284.389693 C316.31206,284.041741 315.646667,283.845972 315.097374,283.802381 C314.258562,283.736786 313.700937,284.014448 313.424482,284.635377 Z M323.697865,204.292353 L324.466883,204.042483 C324.772855,204.74399 325.054971,205.210908 325.313239,205.443254 C325.571507,205.675599 326.031921,205.762167 326.694495,205.702961 L326.951607,206.49427 L319.005084,209.076252 L318.65744,208.006313 L324.308053,206.170318 L323.697865,204.292353 Z M322.246783,212.132288 C321.696388,212.385053 321.387044,212.779232 321.318742,213.314837 C321.284544,213.588815 321.318143,213.881834 321.41954,214.193901 C321.612677,214.788314 321.945183,215.166983 322.417068,215.32992 C322.888954,215.492857 323.355224,215.499485 323.815895,215.349804 C324.373157,215.168739 324.748876,214.858754 324.943063,214.419841 C325.13725,213.980929 325.157088,213.523714 325.002579,213.048183 C324.890318,212.702681 324.727183,212.428135 324.513167,212.224538 C324.299152,212.02094 324.044899,211.870467 323.750399,211.773112 L323.518092,210.887492 L328.011925,210.098896 L329.359045,214.244908 L328.389414,214.559961 L327.28673,211.166249 L324.958387,211.546958 C325.159915,211.686842 325.32313,211.828904 325.448036,211.973148 C325.667202,212.23052 325.840156,212.554243 325.966902,212.944327 C326.204701,213.676198 326.17038,214.373258 325.863938,215.035526 C325.557496,215.697795 325.042061,216.146615 324.31762,216.382 C323.563458,216.627042 322.822724,216.609993 322.095394,216.330851 C321.368065,216.051709 320.838432,215.401324 320.506478,214.379676 C320.295235,213.729537 320.291404,213.095187 320.494984,212.476609 C320.698564,211.85803 321.169629,211.395903 321.908192,211.090212 L322.246783,212.132288 Z M332.242188,240.395508 C332.242188,241.481451 331.794926,242.266599 330.900391,242.750977 C330.208981,243.125978 329.261725,243.313477 328.058594,243.313477 C326.917963,243.313477 325.974613,243.143556 325.228516,242.803711 C324.158198,242.311521 323.623047,241.506842 323.623047,240.389648 C323.623047,239.381831 324.060542,238.631838 324.935547,238.139648 C325.666019,237.72949 326.646478,237.524414 327.876953,237.524414 C328.830083,237.524414 329.648434,237.64746 330.332031,237.893555 C331.605475,238.354494 332.242188,239.188471 332.242188,240.395508 Z M324.583984,240.383789 C324.583984,240.930667 324.826169,241.366209 325.310547,241.69043 C325.794924,242.01465 326.697259,242.176758 328.017578,242.176758 C328.970708,242.176758 329.75488,242.059571 330.370117,241.825195 C330.985355,241.590819 331.292969,241.135746 331.292969,240.459961 C331.292969,239.838864 331.000979,239.384767 330.416992,239.097656 C329.833005,238.810545 328.972662,238.666992 327.835938,238.666992 C326.980464,238.666992 326.292971,238.758788 325.773438,238.942383 C324.980465,239.223634 324.583984,239.704098 324.583984,240.383789 Z M231,323 C185.160366,323 148,285.839634 148,240 C148,194.160366 185.160366,157 231,157 C276.839634,157 314,194.160366 314,240 C314,285.839634 276.839634,323 231,323 Z M260.102388,145.184171 L260.378943,144.424341 C261.120113,144.615122 261.661738,144.680276 262.003834,144.619804 C262.34593,144.559332 262.697606,144.249818 263.058873,143.691251 L263.840726,143.975823 L260.982988,151.827395 L259.925833,151.442623 L261.957914,145.859527 L260.102388,145.184171 Z M269.442364,145.939827 C270.32333,146.260473 270.854078,146.712417 271.034624,147.295672 C271.215169,147.878927 271.217265,148.412813 271.04091,148.897344 L270.06084,148.540628 C270.115671,148.207243 270.110913,147.929077 270.046568,147.706123 C269.928215,147.288919 269.626778,146.992144 269.142246,146.815789 C268.587972,146.61405 268.054309,146.709756 267.541242,147.102912 C267.028175,147.496068 266.579612,148.163145 266.195539,149.104165 C266.5447,148.852966 266.921858,148.70757 267.327024,148.667975 C267.696145,148.636046 268.075246,148.690889 268.46434,148.832508 C269.125064,149.072992 269.624534,149.493806 269.962764,150.094963 C270.300995,150.696119 270.317803,151.415146 270.01319,152.252064 C269.752665,152.967849 269.288785,153.517115 268.621536,153.89988 C267.954286,154.282644 267.189367,154.317043 266.326754,154.003078 C265.588945,153.734537 265.053959,153.222854 264.721782,152.468014 C264.389604,151.713174 264.464666,150.67321 264.94697,149.34809 C265.303689,148.368015 265.725589,147.580036 266.212684,146.984128 C267.147145,145.844365 268.223694,145.496268 269.442364,145.939827 Z M266.735494,153.15418 C267.256732,153.343895 267.710532,153.310573 268.096906,153.054211 C268.48328,152.79785 268.763304,152.431079 268.936987,151.953889 C269.08395,151.550113 269.108271,151.12353 269.009951,150.674126 C268.911632,150.224723 268.55781,149.889136 267.948475,149.667357 C267.522675,149.512378 267.097751,149.517759 266.673692,149.683501 C266.249633,149.849242 265.934066,150.216586 265.726982,150.785543 C265.545283,151.284757 265.538553,151.757234 265.706791,152.202987 C265.875029,152.64874 266.217926,152.965801 266.735494,153.15418 Z" id="radio" fill="#FFFFFF" opacity="0.33"></path>
        <path d="M231,321 C275.735065,321 312,284.735065 312,240 C312,195.264935 275.735065,159 231,159 C186.264935,159 150,195.264935 150,240 C150,284.735065 186.264935,321 231,321 Z M192,172.450019 C191.043415,173.002303 190.715664,174.225484 191.267949,175.182069 L202.267949,194.234628 C202.820234,195.191213 204.043415,195.518964 205,194.966679 C205.956585,194.414394 206.284336,193.191213 205.732051,192.234628 L194.732051,173.182069 C194.179766,172.225484 192.956585,171.897734 192,172.450019 Z M191.5,171.583993 C192.934878,170.755566 194.769649,171.247191 195.598076,172.682069 L206.598076,191.734628 C207.426503,193.169506 206.934878,195.004277 205.5,195.832704 C204.065122,196.661132 202.230351,196.169506 201.401924,194.734628 L190.401924,175.682069 C189.573497,174.247191 190.065122,172.41242 191.5,171.583993 Z M192,307.549981 C192.956585,308.102266 194.179766,307.774516 194.732051,306.817931 L205.732051,287.765372 C206.284336,286.808787 205.956585,285.585606 205,285.033321 C204.043415,284.481036 202.820234,284.808787 202.267949,285.765372 L191.267949,304.817931 C190.715664,305.774516 191.043415,306.997697 192,307.549981 Z M191.5,308.416007 C190.065122,307.58758 189.573497,305.752809 190.401924,304.317931 L201.401924,285.265372 C202.230351,283.830494 204.065122,283.338868 205.5,284.167296 C206.934878,284.995723 207.426503,286.830494 206.598076,288.265372 L195.598076,307.317931 C194.769649,308.752809 192.934878,309.244434 191.5,308.416007 Z M231,265 C217.192881,265 206,253.807119 206,240 C206,226.192881 217.192881,215 231,215 C244.807119,215 256,226.192881 256,240 C256,253.807119 244.807119,265 231,265 Z M231,263 C218.297451,263 208,252.702549 208,240 C208,227.297451 218.297451,217 231,217 C243.702549,217 254,227.297451 254,240 C254,252.702549 243.702549,263 231,263 Z M222,240 C223.656854,240 225,238.656854 225,237 C225,235.343146 223.656854,234 222,234 C220.343146,234 219,235.343146 219,237 C219,238.656854 220.343146,240 222,240 Z M240,246 C241.656854,246 243,244.656854 243,243 C243,241.343146 241.656854,240 240,240 C238.343146,240 237,241.343146 237,243 C237,244.656854 238.343146,246 240,246 Z M299.358979,235.522684 L308.573301,239.066654 C309.088774,239.264913 309.345927,239.843507 309.147668,240.358979 C309.046094,240.623072 308.837394,240.831772 308.573301,240.933346 L299.358979,244.477316 C298.843507,244.675574 298.264913,244.418422 298.066654,243.902949 C298.022595,243.788394 298,243.666706 298,243.54397 L298,236.45603 C298,235.903745 298.447715,235.45603 299,235.45603 C299.122736,235.45603 299.244424,235.478625 299.358979,235.522684 Z" id="dial" fill="#FFFFFF" fill-rule="nonzero" opacity="0.33"></path>
    </g>
    <style>
    #dial {
      transform-origin: center;
    }
    #dial {
      animation: spin_1 20s infinite linear;
      transform-origin: 231px 240px;
    }
    @keyframes spin_1 {
      0% {
        transform: rotate(0deg);
      }
      100% {
        transform: rotate(360deg);
      }
    }
  </style>
</svg>